<mxGraphModel dx="1163" dy="761" grid="1" gridSize="10" guides="1" tooltips="1" connect="1" arrows="1" fold="1" page="1" pageScale="1" pageWidth="827" pageHeight="1169" math="0" shadow="0"><root><mxCell id="0"/><mxCell id="1" parent="0"/><mxCell id="S_kNJv7qOrjBcIyDyyHM-1" value="Администратор" style="shape=umlActor;verticalLabelPosition=bottom;verticalAlign=top;html=1;outlineConnect=0;" parent="1" vertex="1"><mxGeometry x="80" y="20" width="30" height="60" as="geometry"/></mxCell><mxCell id="S_kNJv7qOrjBcIyDyyHM-2" value="Администратор" style="shape=umlActor;verticalLabelPosition=bottom;verticalAlign=top;html=1;outlineConnect=0;" parent="1" vertex="1"><mxGeometry x="80" y="470" width="30" height="60" as="geometry"/></mxCell><mxCell id="S_kNJv7qOrjBcIyDyyHM-3" value="" style="endArrow=none;dashed=1;html=1;rounded=0;exitX=0.5;exitY=0;exitDx=0;exitDy=0;exitPerimeter=0;" parent="1" source="S_kNJv7qOrjBcIyDyyHM-11" target="S_kNJv7qOrjBcIyDyyHM-1" edge="1"><mxGeometry width="50" height="50" relative="1" as="geometry"><mxPoint x="310" y="120" as="sourcePoint"/><mxPoint x="360" y="70" as="targetPoint"/><Array as="points"/></mxGeometry></mxCell><mxCell id="S_kNJv7qOrjBcIyDyyHM-4" value="Система" style="rounded=0;whiteSpace=wrap;html=1;" parent="1" vertex="1"><mxGeometry x="310" y="40" width="90" height="40" as="geometry"/></mxCell><mxCell id="S_kNJv7qOrjBcIyDyyHM-5" value="Система" style="rounded=0;whiteSpace=wrap;html=1;" parent="1" vertex="1"><mxGeometry x="310" y="480" width="90" height="40" as="geometry"/></mxCell><mxCell id="S_kNJv7qOrjBcIyDyyHM-6" value="" style="endArrow=none;dashed=1;html=1;rounded=0;entryX=0.5;entryY=1;entryDx=0;entryDy=0;exitX=0.5;exitY=0;exitDx=0;exitDy=0;" parent="1" source="S_kNJv7qOrjBcIyDyyHM-9" target="S_kNJv7qOrjBcIyDyyHM-4" edge="1"><mxGeometry width="50" height="50" relative="1" as="geometry"><mxPoint x="310" y="220" as="sourcePoint"/><mxPoint x="360" y="170" as="targetPoint"/></mxGeometry></mxCell><mxCell id="S_kNJv7qOrjBcIyDyyHM-7" value="Авторизация" style="html=1;verticalAlign=bottom;endArrow=block;curved=0;rounded=0;" parent="1" source="S_kNJv7qOrjBcIyDyyHM-11" target="S_kNJv7qOrjBcIyDyyHM-9" edge="1"><mxGeometry width="80" relative="1" as="geometry"><mxPoint x="90" y="160" as="sourcePoint"/><mxPoint x="200" y="220" as="targetPoint"/><Array as="points"><mxPoint x="170" y="150"/></Array></mxGeometry></mxCell><mxCell id="S_kNJv7qOrjBcIyDyyHM-8" value="" style="endArrow=none;dashed=1;html=1;rounded=0;entryX=0.5;entryY=1;entryDx=0;entryDy=0;exitX=0.5;exitY=0;exitDx=0;exitDy=0;" parent="1" source="S_kNJv7qOrjBcIyDyyHM-5" target="S_kNJv7qOrjBcIyDyyHM-9" edge="1"><mxGeometry width="50" height="50" relative="1" as="geometry"><mxPoint x="355" y="440" as="sourcePoint"/><mxPoint x="355" y="80" as="targetPoint"/></mxGeometry></mxCell><mxCell id="S_kNJv7qOrjBcIyDyyHM-9" value="" style="html=1;points=[[0,0,0,0,5],[0,1,0,0,-5],[1,0,0,0,5],[1,1,0,0,-5]];perimeter=orthogonalPerimeter;outlineConnect=0;targetShapes=umlLifeline;portConstraint=eastwest;newEdgeStyle={&quot;curved&quot;:0,&quot;rounded&quot;:0};" parent="1" vertex="1"><mxGeometry x="350" y="120" width="10" height="320" as="geometry"/></mxCell><mxCell id="S_kNJv7qOrjBcIyDyyHM-10" value="" style="endArrow=none;dashed=1;html=1;rounded=0;exitX=0.5;exitY=0;exitDx=0;exitDy=0;exitPerimeter=0;" parent="1" source="S_kNJv7qOrjBcIyDyyHM-2" target="S_kNJv7qOrjBcIyDyyHM-11" edge="1"><mxGeometry width="50" height="50" relative="1" as="geometry"><mxPoint x="95" y="440" as="sourcePoint"/><mxPoint x="95" y="80" as="targetPoint"/><Array as="points"/></mxGeometry></mxCell><mxCell id="S_kNJv7qOrjBcIyDyyHM-11" value="" style="html=1;points=[[0,0,0,0,5],[0,1,0,0,-5],[1,0,0,0,5],[1,1,0,0,-5]];perimeter=orthogonalPerimeter;outlineConnect=0;targetShapes=umlLifeline;portConstraint=eastwest;newEdgeStyle={&quot;curved&quot;:0,&quot;rounded&quot;:0};" parent="1" vertex="1"><mxGeometry x="90" y="120" width="10" height="320" as="geometry"/></mxCell><mxCell id="S_kNJv7qOrjBcIyDyyHM-12" value="Успешная Авторизация" style="html=1;verticalAlign=bottom;endArrow=open;dashed=1;endSize=8;curved=0;rounded=0;" parent="1" source="S_kNJv7qOrjBcIyDyyHM-9" target="S_kNJv7qOrjBcIyDyyHM-11" edge="1"><mxGeometry relative="1" as="geometry"><mxPoint x="200" y="285" as="targetPoint"/><mxPoint x="240" y="340" as="sourcePoint"/><Array as="points"><mxPoint x="290" y="200"/></Array></mxGeometry></mxCell><mxCell id="S_kNJv7qOrjBcIyDyyHM-13" value="Выбор действия создания пользователя" style="html=1;verticalAlign=bottom;endArrow=block;curved=0;rounded=0;" parent="1" edge="1"><mxGeometry width="80" relative="1" as="geometry"><mxPoint x="100" y="250" as="sourcePoint"/><mxPoint x="350" y="250" as="targetPoint"/><Array as="points"><mxPoint x="170" y="250"/></Array></mxGeometry></mxCell><mxCell id="S_kNJv7qOrjBcIyDyyHM-15" value="БД Пользователи" style="shape=cylinder3;whiteSpace=wrap;html=1;boundedLbl=1;backgroundOutline=1;size=15;" parent="1" vertex="1"><mxGeometry x="510" y="470" width="60" height="80" as="geometry"/></mxCell><mxCell id="S_kNJv7qOrjBcIyDyyHM-16" value="БД Пользователи" style="shape=cylinder3;whiteSpace=wrap;html=1;boundedLbl=1;backgroundOutline=1;size=15;" parent="1" vertex="1"><mxGeometry x="510" y="20" width="60" height="80" as="geometry"/></mxCell><mxCell id="S_kNJv7qOrjBcIyDyyHM-17" value="" style="endArrow=none;dashed=1;html=1;rounded=0;entryX=0.5;entryY=1;entryDx=0;entryDy=0;entryPerimeter=0;exitX=0.5;exitY=0;exitDx=0;exitDy=0;exitPerimeter=0;" parent="1" source="S_kNJv7qOrjBcIyDyyHM-19" target="S_kNJv7qOrjBcIyDyyHM-16" edge="1"><mxGeometry width="50" height="50" relative="1" as="geometry"><mxPoint x="310" y="320" as="sourcePoint"/><mxPoint x="360" y="270" as="targetPoint"/></mxGeometry></mxCell><mxCell id="S_kNJv7qOrjBcIyDyyHM-18" value="" style="endArrow=none;dashed=1;html=1;rounded=0;entryX=0.5;entryY=1;entryDx=0;entryDy=0;entryPerimeter=0;exitX=0.5;exitY=0;exitDx=0;exitDy=0;exitPerimeter=0;" parent="1" source="S_kNJv7qOrjBcIyDyyHM-15" target="S_kNJv7qOrjBcIyDyyHM-19" edge="1"><mxGeometry width="50" height="50" relative="1" as="geometry"><mxPoint x="540" y="440" as="sourcePoint"/><mxPoint x="540" y="100" as="targetPoint"/></mxGeometry></mxCell><mxCell id="S_kNJv7qOrjBcIyDyyHM-19" value="" style="html=1;points=[[0,0,0,0,5],[0,1,0,0,-5],[1,0,0,0,5],[1,1,0,0,-5]];perimeter=orthogonalPerimeter;outlineConnect=0;targetShapes=umlLifeline;portConstraint=eastwest;newEdgeStyle={&quot;curved&quot;:0,&quot;rounded&quot;:0};" parent="1" vertex="1"><mxGeometry x="535" y="120" width="10" height="320" as="geometry"/></mxCell><mxCell id="S_kNJv7qOrjBcIyDyyHM-20" value="Сохранение учетной записи" style="html=1;verticalAlign=bottom;endArrow=block;curved=0;rounded=0;" parent="1" edge="1"><mxGeometry x="0.0057" width="80" relative="1" as="geometry"><mxPoint x="360" y="370" as="sourcePoint"/><mxPoint x="535" y="370" as="targetPoint"/><Array as="points"><mxPoint x="390" y="370"/></Array><mxPoint as="offset"/></mxGeometry></mxCell><mxCell id="S_kNJv7qOrjBcIyDyyHM-21" value="Подтверждение Сохранения" style="html=1;verticalAlign=bottom;endArrow=open;dashed=1;endSize=8;curved=0;rounded=0;" parent="1" edge="1"><mxGeometry relative="1" as="geometry"><mxPoint x="360" y="400" as="targetPoint"/><mxPoint x="535" y="400" as="sourcePoint"/><Array as="points"/></mxGeometry></mxCell><mxCell id="S_kNJv7qOrjBcIyDyyHM-22" value="Учетная запись сохранена" style="html=1;verticalAlign=bottom;endArrow=open;dashed=1;endSize=8;curved=0;rounded=0;" parent="1" edge="1"><mxGeometry relative="1" as="geometry"><mxPoint x="100" y="420" as="targetPoint"/><mxPoint x="350" y="420" as="sourcePoint"/><Array as="points"><mxPoint x="290" y="420"/></Array><mxPoint as="offset"/></mxGeometry></mxCell><mxCell id="S_kNJv7qOrjBcIyDyyHM-23" value="Ввод данных учетной записи" style="html=1;verticalAlign=bottom;endArrow=block;curved=0;rounded=0;" parent="1" edge="1"><mxGeometry width="80" relative="1" as="geometry"><mxPoint x="100" y="340" as="sourcePoint"/><mxPoint x="350" y="340" as="targetPoint"/><Array as="points"><mxPoint x="170" y="340"/></Array></mxGeometry></mxCell><mxCell id="S_kNJv7qOrjBcIyDyyHM-24" value="Форма для ввода данных пользователей" style="html=1;verticalAlign=bottom;endArrow=block;curved=0;rounded=0;" parent="1" edge="1"><mxGeometry width="80" relative="1" as="geometry"><mxPoint x="350" y="300" as="sourcePoint"/><mxPoint x="100" y="300" as="targetPoint"/><Array as="points"><mxPoint x="180" y="300"/></Array></mxGeometry></mxCell></root></mxGraphModel>